<svg width="50" height="67" viewBox="0 0 50 67" fill="none" xmlns="http://www.w3.org/2000/svg">
<path d="M29.1667 17.7083V0H3.125C1.39323 0 0 1.39323 0 3.125V63.5417C0 65.2734 1.39323 66.6667 3.125 66.6667H46.875C48.6068 66.6667 50 65.2734 50 63.5417V20.8333H32.2917C30.5729 20.8333 29.1667 19.4271 29.1667 17.7083ZM36.6016 33.3333H39.7135C40.7161 33.3333 41.4583 34.2578 41.237 35.2474L36.2891 57.1224C36.1328 57.8385 35.4948 58.3333 34.7656 58.3333H29.8177C29.1016 58.3333 28.4766 57.8385 28.3073 57.1484C24.9479 43.6719 25.599 46.5755 24.974 42.7604H24.9089C24.7656 44.6224 24.5964 45.026 21.5755 57.1484C21.4062 57.8385 20.7812 58.3333 20.0651 58.3333H15.2344C14.5052 58.3333 13.8672 57.8255 13.7109 57.1094L8.78906 35.2344C8.56771 34.2578 9.3099 33.3333 10.3125 33.3333H13.5026C14.2448 33.3333 14.8958 33.8542 15.0391 34.5964C17.0703 44.7526 17.6562 48.8542 17.7734 50.5078C17.9818 49.1797 18.724 46.25 21.6016 34.5312C21.7708 33.8281 22.3958 33.3464 23.125 33.3464H26.9141C27.6432 33.3464 28.2682 33.8411 28.4375 34.5443C31.5625 47.6172 32.1875 50.6901 32.2917 51.3932C32.2656 49.9349 31.9531 49.0755 35.1042 34.5703C35.2344 33.8411 35.8724 33.3333 36.6016 33.3333ZM50 15.8724V16.6667H33.3333V0H34.1276C34.9609 0 35.7552 0.325521 36.3411 0.911458L49.0885 13.6719C49.6745 14.2578 50 15.0521 50 15.8724Z" fill="#9EE4EE"/>
</svg>
