<svg width="50" height="67" viewBox="0 0 50 67" fill="none" xmlns="http://www.w3.org/2000/svg">
<path d="M29.1667 17.7083V0H3.125C1.39323 0 0 1.39323 0 3.125V63.5417C0 65.2734 1.39323 66.6667 3.125 66.6667H46.875C48.6068 66.6667 50 65.2734 50 63.5417V20.8333H32.2917C30.5729 20.8333 29.1667 19.4271 29.1667 17.7083ZM36.9922 31.5755L29.1667 43.75L36.9922 55.9245C37.6562 56.9661 36.9141 58.3333 35.6771 58.3333H31.1328C30.5599 58.3333 30.026 58.0208 29.7526 57.513C27.2005 52.7995 25 48.5677 25 48.5677C24.1667 50.4948 23.6979 51.1719 20.2344 57.526C19.9609 58.0339 19.4401 58.3464 18.8672 58.3464H14.3229C13.0859 58.3464 12.3438 56.9792 13.0078 55.9375L20.8594 43.763L13.0078 31.5885C12.3307 30.5469 13.0859 29.1797 14.3229 29.1797H18.8542C19.4271 29.1797 19.9609 29.4922 20.2344 30C23.6328 36.3542 22.8385 34.375 25 38.9193C25 38.9193 25.7943 37.3958 29.7656 30C30.0391 29.4922 30.5729 29.1797 31.1458 29.1797H35.6771C36.9141 29.1667 37.6562 30.5339 36.9922 31.5755ZM50 15.8724V16.6667H33.3333V0H34.1276C34.9609 0 35.7552 0.325521 36.3411 0.911458L49.0885 13.6719C49.6745 14.2578 50 15.0521 50 15.8724Z" fill="#9FD1A4"/>
</svg>
