<svg width="50" height="67" viewBox="0 0 50 67" fill="none" xmlns="http://www.w3.org/2000/svg">
<path d="M23.6849 33.3464C23.0339 31.263 23.0469 27.2396 23.4245 27.2396C24.5182 27.2396 24.4141 32.0443 23.6849 33.3464ZM23.4635 39.4922C22.4609 42.1224 21.2109 45.1302 19.7656 47.6562C22.1484 46.7448 24.8437 45.4167 27.9557 44.8047C26.3021 43.5547 24.7135 41.7578 23.4635 39.4922ZM11.2109 55.7422C11.2109 55.8464 12.9297 55.0391 15.7552 50.5078C14.8828 51.3281 11.9661 53.6979 11.2109 55.7422ZM32.2917 20.8333H50V63.5417C50 65.2734 48.6068 66.6667 46.875 66.6667H3.125C1.39323 66.6667 0 65.2734 0 63.5417V3.125C0 1.39323 1.39323 0 3.125 0H29.1667V17.7083C29.1667 19.4271 30.5729 20.8333 32.2917 20.8333ZM31.25 43.2031C28.6458 41.6146 26.9141 39.4271 25.6901 36.1979C26.276 33.7891 27.2005 30.1302 26.4974 27.8385C25.8854 24.0104 20.9766 24.388 20.2734 26.9531C19.6224 29.3359 20.2214 32.6953 21.3281 36.9792C19.8177 40.5729 17.5911 45.3906 16.0156 48.151C16.0026 48.151 16.0026 48.1641 15.9896 48.1641C12.4609 49.974 6.40625 53.9583 8.89323 57.0182C9.6224 57.9167 10.9766 58.3203 11.6927 58.3203C14.0234 58.3203 16.3411 55.9766 19.6484 50.2734C23.0078 49.1667 26.6927 47.7865 29.9349 47.2526C32.7604 48.7891 36.0677 49.7917 38.2682 49.7917C42.0703 49.7917 42.3307 45.625 40.8333 44.1406C39.0234 42.3698 33.763 42.8776 31.25 43.2031ZM49.0885 13.6719L36.3281 0.911458C35.7422 0.325521 34.9479 0 34.1146 0H33.3333V16.6667H50V15.8724C50 15.0521 49.6745 14.2578 49.0885 13.6719ZM39.4401 46.9141C39.974 46.5625 39.1146 45.3646 33.8672 45.7422C38.6979 47.7995 39.4401 46.9141 39.4401 46.9141Z" fill="#B94545"/>
</svg>
