<svg width="50" height="67" viewBox="0 0 50 67" fill="none" xmlns="http://www.w3.org/2000/svg">
<path d="M25.2214 35.3125C26.3672 35.3125 27.2396 35.6641 27.8646 36.3672C29.1146 37.7865 29.1406 40.625 27.8385 42.1094C27.2005 42.8385 26.2891 43.2161 25.0911 43.2161H21.5885V35.3125H25.2214ZM49.0885 13.6719L36.3281 0.911458C35.7422 0.325521 34.9479 0 34.1146 0H33.3333V16.6667H50V15.8724C50 15.0521 49.6745 14.2578 49.0885 13.6719ZM29.1667 17.7083V0H3.125C1.39323 0 0 1.39323 0 3.125V63.5417C0 65.2734 1.39323 66.6667 3.125 66.6667H46.875C48.6068 66.6667 50 65.2734 50 63.5417V20.8333H32.2917C30.5729 20.8333 29.1667 19.4271 29.1667 17.7083ZM36.0677 39.2188C36.0677 50.9766 24.5052 49.3229 21.6016 49.3229V56.7708C21.6016 57.6302 20.8984 58.3333 20.0391 58.3333H16.0286C15.1693 58.3333 14.4661 57.6302 14.4661 56.7708V30.7552C14.4661 29.8958 15.1693 29.1927 16.0286 29.1927H26.5755C32.3698 29.1927 36.0677 33.4635 36.0677 39.2188Z" fill="#ED6B6B"/>
</svg>
