<svg width="50" height="67" viewBox="0 0 50 67" fill="none" xmlns="http://www.w3.org/2000/svg">
<path d="M50 15.8777V16.6667H33.3333V0H34.1223C34.951 0 35.746 0.329297 36.332 0.915234L49.0848 13.668C49.6707 14.2541 50 15.0489 50 15.8777ZM29.1667 17.7083V0H3.125C1.39909 0 0 1.39909 0 3.125V63.5417C0 65.2676 1.39909 66.6667 3.125 66.6667H46.875C48.6009 66.6667 50 65.2676 50 63.5417V20.8333H32.2917C30.5729 20.8333 29.1667 19.4271 29.1667 17.7083ZM41.6667 36.4604V51.0389C41.6667 53.8312 38.2887 55.2053 36.3319 53.2487L29.1667 46.0861V51.0417C29.1667 52.7676 27.7676 54.1667 26.0417 54.1667H11.4583C9.73242 54.1667 8.33333 52.7676 8.33333 51.0417V36.4583C8.33333 34.7324 9.73242 33.3333 11.4583 33.3333H26.0417C27.7676 33.3333 29.1667 34.7324 29.1667 36.4583V41.4139L36.3319 34.2508C38.2865 32.2964 41.6667 33.666 41.6667 36.4604Z" fill="#E8AD87"/>
</svg>
