<svg width="50" height="67" viewBox="0 0 50 67" fill="none" xmlns="http://www.w3.org/2000/svg">
<path d="M50 15.8777V16.6667H33.3333V0H34.1223C34.951 4.33328e-06 35.7459 0.329222 36.3319 0.915234L49.0846 13.668C49.6707 14.254 50 15.0489 50 15.8777ZM32.2917 20.8333C30.5729 20.8333 29.1667 19.4271 29.1667 17.7083V0H3.125C1.39909 0 0 1.39909 0 3.125V63.5417C0 65.2676 1.39909 66.6667 3.125 66.6667H46.875C48.6009 66.6667 50 65.2676 50 63.5417V20.8333H32.2917ZM14.6543 22.9167C18.1061 22.9167 20.9043 25.7148 20.9043 29.1667C20.9043 32.6185 18.1061 35.4167 14.6543 35.4167C11.2025 35.4167 8.4043 32.6185 8.4043 29.1667C8.4043 25.7148 11.2026 22.9167 14.6543 22.9167ZM41.7376 54.1667H8.4043L8.46745 47.8535L13.6126 42.7083C14.2228 42.0982 15.149 42.1613 15.7591 42.7715L20.9043 47.9167L34.3828 34.4381C34.993 33.828 35.9823 33.828 36.5926 34.4381L41.7376 39.5833V54.1667Z" fill="#C5C4EA"/>
</svg>
